#Comment line ignore any data following # character 
#Hierarchical Translation and Rotation (.htr) file 
[Header]	
#Header keywords are followed by a single value 
FileType HTR		#Single word string
DataType HTRS		#Translation followed by rotation and scale data
FileVersion 1		#integer
NumSegments 64		#integer
NumFrames 2		#integer
DataFrameRate 30		#integer, data frame rate in this file
EulerRotationOrder ZYX
CalibrationUnits mm
RotationUnits Degrees
GlobalAxisofGravity Y
BoneLengthAxis Y
ScaleFactor 1.00
[SegmentNames&Hierarchy]
#CHILD	PARENT
Pinger_Root GLOBAL
Pelvis Pinger_Root
L_Hip Pelvis
R_Hip Pelvis
Rear_Leg01 Pelvis
Spine1 Pelvis
L_Leg01 L_Hip
L_Leg02 L_Leg01
L_Leg03 L_Leg02
L_Foot L_Leg03
L_Toe1_01 L_Foot
L_Toe2_01 L_Foot
L_Toe3_01 L_Foot
planeAlignerLeft L_Foot
L_Toe1_02 L_Toe1_01
L_Toe1_03 L_Toe1_02
L_Toe2_02 L_Toe2_01
L_Toe2_03 L_Toe2_02
L_Toe3_02 L_Toe3_01
L_Toe3_03 L_Toe3_02
planeLockWeightLeft planeAlignerLeft
R_Leg01 R_Hip
R_Leg02 R_Leg01
R_Leg03 R_Leg02
R_Foot R_Leg03
planeAlignerRight R_Foot
R_Toe1_01 R_Foot
R_Toe2_01 R_Foot
R_Toe3_01 R_Foot
planeLockWeightRight planeAlignerRight
R_Toe1_02 R_Toe1_01
R_Toe1_03 R_Toe1_02
R_Toe2_02 R_Toe2_01
R_Toe2_03 R_Toe2_02
R_Toe3_02 R_Toe3_01
R_Toe3_03 R_Toe3_02
Rear_Leg02 Rear_Leg01
Rear_Leg03 Rear_Leg02
Rear_Leg04 Rear_Leg03
Rear_Foot Rear_Leg04
planeAlignerCenter Rear_Foot
Rear_Toe1_01 Rear_Foot
Rear_Toe2_01 Rear_Foot
Rear_Toe3_01 Rear_Foot
planeLockWeightCenter planeAlignerCenter
Rear_Toe1_02 Rear_Toe1_01
Rear_Toe1_03 Rear_Toe1_02
Rear_Toe2_02 Rear_Toe2_01
Rear_Toe2_03 Rear_Toe2_02
Rear_Toe3_02 Rear_Toe3_01
Rear_Toe3_03 Rear_Toe3_02
Back_Bone Spine1
Head Spine1
Motor_Bone Back_Bone
Ping_Mechanism Back_Bone
BN_LookIK Head
bottomMouth Head
L_Mouth01 Head
L_mouthFront Head
mouthGun Head
R_Mouth01 Head
R_mouthFront Head
TopMouth Head
weapon_bone Head
[BasePosition]
#SegmentName Tx, Ty, Tz, Rx, Ry, Rz, BoneLength
Pinger_Root 0.000000 0.000000 0.000000 -90.000000 0.000000 0.000000 10.000000 
Pelvis 0.000000 0.000000 0.000000 0.000000 0.000000 0.000000 10.000000 
L_Hip 0.000000 0.000000 0.000000 0.000000 0.000000 0.000000 10.000000 
R_Hip 0.000000 0.000000 0.000000 0.000000 0.000000 0.000000 10.000000 
Rear_Leg01 0.000000 0.000000 0.000000 0.000000 0.000000 0.000000 10.000000 
Spine1 0.000000 0.000000 0.000000 0.000000 0.000000 0.000000 10.000000 
L_Leg01 0.000000 0.000000 0.000000 0.000000 0.000000 0.000000 10.000000 
L_Leg02 0.000000 0.000000 0.000000 0.000000 0.000000 0.000000 10.000000 
L_Leg03 0.000000 0.000000 0.000000 0.000000 0.000000 0.000000 10.000000 
L_Foot 0.000000 0.000000 0.000000 0.000000 0.000000 0.000000 10.000000 
L_Toe1_01 0.000000 0.000000 0.000000 0.000000 0.000000 0.000000 10.000000 
L_Toe2_01 0.000000 0.000000 0.000000 0.000000 0.000000 0.000000 10.000000 
L_Toe3_01 0.000000 0.000000 0.000000 0.000000 0.000000 0.000000 10.000000 
planeAlignerLeft 0.000000 0.000000 0.000000 0.000000 0.000000 0.000000 10.000000 
L_Toe1_02 0.000000 0.000000 0.000000 0.000000 0.000000 0.000000 10.000000 
L_Toe1_03 0.000000 0.000000 0.000000 0.000000 0.000000 0.000000 10.000000 
L_Toe2_02 0.000000 0.000000 0.000000 0.000000 0.000000 0.000000 10.000000 
L_Toe2_03 0.000000 0.000000 0.000000 0.000000 0.000000 0.000000 10.000000 
L_Toe3_02 0.000000 0.000000 0.000000 0.000000 0.000000 0.000000 10.000000 
L_Toe3_03 0.000000 0.000000 0.000000 0.000000 0.000000 0.000000 10.000000 
planeLockWeightLeft 0.000000 0.000000 0.000000 0.000000 0.000000 0.000000 10.000000 
R_Leg01 0.000000 0.000000 0.000000 0.000000 0.000000 0.000000 10.000000 
R_Leg02 0.000000 0.000000 0.000000 0.000000 0.000000 0.000000 10.000000 
R_Leg03 0.000000 0.000000 0.000000 0.000000 0.000000 0.000000 10.000000 
R_Foot 0.000000 0.000000 0.000000 0.000000 0.000000 0.000000 10.000000 
planeAlignerRight 0.000000 0.000000 0.000000 0.000000 0.000000 0.000000 10.000000 
R_Toe1_01 0.000000 0.000000 0.000000 0.000000 0.000000 0.000000 10.000000 
R_Toe2_01 0.000000 0.000000 0.000000 0.000000 0.000000 0.000000 10.000000 
R_Toe3_01 0.000000 0.000000 0.000000 0.000000 0.000000 0.000000 10.000000 
planeLockWeightRight 0.000000 0.000000 0.000000 0.000000 0.000000 0.000000 10.000000 
R_Toe1_02 0.000000 0.000000 0.000000 0.000000 0.000000 0.000000 10.000000 
R_Toe1_03 0.000000 0.000000 0.000000 0.000000 0.000000 0.000000 10.000000 
R_Toe2_02 0.000000 0.000000 0.000000 0.000000 0.000000 0.000000 10.000000 
R_Toe2_03 0.000000 0.000000 0.000000 0.000000 0.000000 0.000000 10.000000 
R_Toe3_02 0.000000 0.000000 0.000000 0.000000 0.000000 0.000000 10.000000 
R_Toe3_03 0.000000 0.000000 0.000000 0.000000 0.000000 0.000000 10.000000 
Rear_Leg02 0.000000 0.000000 0.000000 0.000000 0.000000 0.000000 10.000000 
Rear_Leg03 0.000000 0.000000 0.000000 0.000000 0.000000 0.000000 10.000000 
Rear_Leg04 0.000000 0.000000 0.000000 0.000000 0.000000 0.000000 10.000000 
Rear_Foot 0.000000 0.000000 0.000000 0.000000 0.000000 0.000000 10.000000 
planeAlignerCenter 0.000000 0.000000 0.000000 0.000000 0.000000 0.000000 10.000000 
Rear_Toe1_01 0.000000 0.000000 0.000000 0.000000 0.000000 0.000000 10.000000 
Rear_Toe2_01 0.000000 0.000000 0.000000 0.000000 0.000000 0.000000 10.000000 
Rear_Toe3_01 0.000000 0.000000 0.000000 0.000000 0.000000 0.000000 10.000000 
planeLockWeightCenter 0.000000 0.000000 0.000000 0.000000 0.000000 0.000000 10.000000 
Rear_Toe1_02 0.000000 0.000000 0.000000 0.000000 0.000000 0.000000 10.000000 
Rear_Toe1_03 0.000000 0.000000 0.000000 0.000000 0.000000 0.000000 10.000000 
Rear_Toe2_02 0.000000 0.000000 0.000000 0.000000 0.000000 0.000000 10.000000 
Rear_Toe2_03 0.000000 0.000000 0.000000 0.000000 0.000000 0.000000 10.000000 
Rear_Toe3_02 0.000000 0.000000 0.000000 0.000000 0.000000 0.000000 10.000000 
Rear_Toe3_03 0.000000 0.000000 0.000000 0.000000 0.000000 0.000000 10.000000 
Back_Bone 0.000000 0.000000 0.000000 0.000000 0.000000 0.000000 10.000000 
Head 0.000000 0.000000 0.000000 0.000000 0.000000 0.000000 10.000000 
Motor_Bone 0.000000 0.000000 0.000000 0.000000 0.000000 0.000000 10.000000 
Ping_Mechanism 0.000000 0.000000 0.000000 0.000000 0.000000 0.000000 10.000000 
BN_LookIK 0.000000 0.000000 0.000000 0.000000 0.000000 0.000000 10.000000 
bottomMouth 0.000000 0.000000 0.000000 0.000000 0.000000 0.000000 10.000000 
L_Mouth01 0.000000 0.000000 0.000000 0.000000 0.000000 0.000000 10.000000 
L_mouthFront 0.000000 0.000000 0.000000 0.000000 0.000000 0.000000 10.000000 
mouthGun 0.000000 0.000000 0.000000 0.000000 0.000000 0.000000 10.000000 
R_Mouth01 0.000000 0.000000 0.000000 0.000000 0.000000 0.000000 10.000000 
R_mouthFront 0.000000 0.000000 0.000000 0.000000 0.000000 0.000000 10.000000 
TopMouth 0.000000 0.000000 0.000000 0.000000 0.000000 0.000000 10.000000 
weapon_bone 0.000000 0.000000 0.000000 0.000000 0.000000 0.000000 10.000000 
#Beginning of Data. Separated by tabs
#Fr	Tx	Ty	Tz	Rx	Ry	Rz	SF
[Pinger_Root]
19 0.000000 0.000000 0.000000 -0.000075 -0.000000 -0.000020 0.000000
20 0.000000 0.000000 0.000000 -0.000075 -0.000000 -0.000020 0.000000
[Pelvis]
19 -62.406643 77.737030 4025.613770 -163.741943 -82.190361 154.238419 4026.847900
20 -33.250614 174.570236 4023.811768 -164.535217 -81.994179 155.694107 4027.733887
[L_Hip]
19 5.766392 125.831482 872.656799 160.158691 -45.484905 122.312202 881.701050
20 5.766392 125.831482 872.656799 160.158691 -45.484905 122.312202 881.701050
[R_Hip]
19 5.765438 125.836372 -872.654907 40.451366 53.242542 126.610565 881.699829
20 5.765438 125.836372 -872.654907 43.321938 56.801125 128.100998 881.699829
[Rear_Leg01]
19 -192.298416 -925.602966 -0.001907 169.195480 1.625489 -148.706894 945.367432
20 -192.298416 -925.602966 -0.001907 168.781891 0.697421 -147.256821 945.367432
[Spine1]
19 290.604584 5.007505 0.000477 10.331100 3.401141 17.702065 290.647736
20 290.604584 5.007505 0.000477 9.844674 3.634119 18.974546 290.647736
[L_Leg01]
19 761.932007 -0.002384 -0.069261 21.556185 -21.602266 14.994718 761.932068
20 761.932007 -0.002384 -0.069261 24.367258 -21.452578 12.641007 761.932068
[L_Leg02]
19 1441.140503 -0.000954 -0.000715 1.841210 -0.300965 -132.257431 1441.140503
20 1441.140503 -0.000954 -0.000715 2.318841 -0.301145 -133.446014 1441.140503
[L_Leg03]
19 1686.963989 -0.000715 -0.000954 0.002313 -0.000400 109.621788 1686.963989
20 1686.963989 -0.000715 -0.000954 -0.007300 0.005025 112.602440 1686.963989
[L_Foot]
19 3041.570068 -30.715107 11.297464 0.999274 5.057931 44.094772 3041.746094
20 3041.570068 -30.715107 11.297464 0.081370 6.764690 44.522644 3041.746094
[L_Toe1_01]
19 -188.216690 -224.732346 -21.137953 94.443588 -19.935215 179.017319 293.899567
20 -188.216690 -224.732346 -21.137953 93.014336 -19.144793 -176.430130 293.899567
[L_Toe2_01]
19 200.746536 -219.926590 148.838394 -102.256195 -23.533346 -33.884686 332.896027
20 200.746536 -219.926590 148.838394 -101.285576 -24.032944 -35.506863 332.896027
[L_Toe3_01]
19 188.832520 -219.859131 -191.078659 -105.383926 25.751816 -56.288010 347.140900
20 188.832520 -219.859131 -191.078659 -104.936256 24.388994 -56.966862 347.140900
[planeAlignerLeft]
19 0.812531 -811.448792 -0.314951 0.000000 -90.000000 -90.001900 811.449280
20 0.812531 -811.448792 -0.314951 0.000000 -90.000000 -90.001900 811.449280
[L_Toe1_02]
19 413.761139 0.000477 0.000000 0.001661 0.070897 0.001661 413.761139
20 413.761139 0.000477 0.000000 0.001522 -10.880331 0.001522 413.761139
[L_Toe1_03]
19 464.317322 0.000358 -0.000089 0.001673 -0.448396 -0.003292 464.317322
20 464.317322 0.000358 -0.000089 0.001360 11.087372 -0.003169 464.317322
[L_Toe2_02]
19 342.235809 -0.000477 0.000238 0.001179 -79.014610 0.001179 342.235809
20 342.235809 -0.000477 0.000238 0.001179 -78.722908 0.001179 342.235809
[L_Toe2_03]
19 420.210846 -0.000715 0.000000 -179.998367 70.590118 -179.994812 420.210846
20 420.210846 -0.000715 0.000000 -179.997986 72.510338 -179.994446 420.210846
[L_Toe3_02]
19 329.270111 0.000954 0.000000 0.004675 -84.710014 0.004675 329.270111
20 329.270111 0.000954 0.000000 0.004675 -84.706680 0.004675 329.270111
[L_Toe3_03]
19 439.137451 -0.001907 0.000954 179.993134 45.206478 -179.999298 439.137451
20 439.137451 -0.001907 0.000954 179.993011 47.574001 -179.999481 439.137451
[planeLockWeightLeft]
19 -0.000954 0.000238 -0.000305 -0.011826 -0.004376 0.005620 0.001029
20 -0.000954 0.000238 -0.000305 -0.011826 -0.004376 0.005620 0.001029
[R_Leg01]
19 761.455627 -0.001907 -0.000358 108.162285 -31.849470 37.485893 761.455688
20 761.455627 -0.001907 -0.000358 107.174042 -31.026583 41.460697 761.455688
[R_Leg02]
19 1441.140625 0.000000 -0.000238 0.031153 0.024493 -110.241936 1441.140625
20 1441.140625 0.000000 -0.000238 -0.185235 0.042722 -110.229836 1441.140625
[R_Leg03]
19 1686.963989 0.000954 0.001431 0.013208 -0.005209 114.141388 1686.963989
20 1686.963989 0.000954 0.001431 0.018565 -0.007799 115.573151 1686.963989
[R_Foot]
19 3041.560059 -30.531288 -11.204481 8.344298 -36.123394 37.696907 3041.734131
20 3041.560059 -30.531288 -11.204481 6.160929 -34.343399 39.509087 3041.734131
[planeAlignerRight]
19 -0.635147 -812.270569 -0.364304 0.000000 -89.960434 -90.005180 812.270874
20 -0.635147 -812.270569 -0.364304 0.000000 -89.960434 -90.005180 812.270874
[R_Toe1_01]
19 -188.383347 -224.864899 21.052242 78.327164 0.810639 -176.062744 294.101532
20 -188.383347 -224.864899 21.052242 78.327164 0.810639 -176.062744 294.101532
[R_Toe2_01]
19 200.637817 -220.002121 -148.787384 -93.660408 45.365730 -40.781036 332.857574
20 200.637817 -220.002121 -148.787384 -92.349518 45.537960 -40.796753 332.857574
[R_Toe3_01]
19 188.606735 -220.092957 191.126343 -77.777176 -16.659966 -55.221592 347.192566
20 188.606735 -220.092957 191.126343 -77.777176 -16.659969 -55.221600 347.192566
[planeLockWeightRight]
19 -0.000477 0.000000 0.000000 -0.011823 -0.004379 -0.000027 0.000477
20 -0.000477 0.000000 0.000000 -0.011823 -0.004379 -0.000027 0.000477
[R_Toe1_02]
19 413.762085 0.000477 -0.000119 0.001534 -9.819742 0.001534 413.762085
20 413.762085 0.000477 -0.000119 0.001534 -9.819553 0.001534 413.762085
[R_Toe1_03]
19 464.317810 0.000000 0.001088 0.001388 9.996821 -0.003176 464.317810
20 464.317810 0.000000 0.001088 0.001388 9.996628 -0.003176 464.317810
[R_Toe2_02]
19 342.234741 -0.000954 0.000238 -0.002332 -79.833969 -0.002332 342.234741
20 342.234741 -0.000954 0.000238 -0.002332 -79.833969 -0.002332 342.234741
[R_Toe2_03]
19 420.210846 0.000715 -0.000268 -179.995636 64.198975 -179.999222 420.210846
20 420.210846 0.000715 -0.000268 -179.995636 64.198990 -179.999222 420.210846
[R_Toe3_02]
19 329.270355 -0.000477 -0.000954 0.001175 -84.663658 0.001175 329.270355
20 329.270355 -0.000477 -0.000954 0.001175 -84.661644 0.001175 329.270355
[R_Toe3_03]
19 439.137939 0.000238 0.001431 -179.997650 45.533470 -179.990097 439.137939
20 439.137939 0.000238 0.001431 -179.997650 45.533470 -179.990097 439.137939
[Rear_Leg02]
19 1162.777710 -0.029802 0.005960 1.695079 -1.549640 -137.911911 1162.777710
20 1162.777710 -0.029802 0.005960 1.096576 -1.089953 -134.835342 1162.777710
[Rear_Leg03]
19 607.192505 -0.013351 -0.073195 0.010144 -0.005768 75.598740 607.192505
20 607.192505 -0.013351 -0.073195 0.010179 -0.005706 74.905563 607.192505
[Rear_Leg04]
19 995.874512 -0.020504 -0.011921 -0.044191 -0.017557 85.331467 995.874573
20 995.874512 -0.020504 -0.011921 -0.045716 -0.016686 83.313583 995.874573
[Rear_Foot]
19 3096.176270 -0.067472 -0.041425 -57.826378 87.454010 121.320892 3096.176270
20 3096.176270 -0.067472 -0.041425 -61.059059 88.404190 119.103035 3096.176270
[planeAlignerCenter]
19 0.350077 0.966311 -838.790894 0.000009 0.000003 -179.999985 838.791565
20 0.350077 0.966311 -838.790894 0.000009 0.000003 -179.999985 838.791565
[Rear_Toe1_01]
19 0.653352 83.966492 -371.173737 0.415369 22.841421 93.892082 380.553192
20 0.653352 83.966492 -371.173737 0.394463 22.838041 93.279037 380.553192
[Rear_Toe2_01]
19 178.200760 -294.826019 -362.060547 -8.820381 20.715452 -63.289440 499.765686
20 178.200760 -294.826019 -362.060547 -8.814548 20.717140 -64.048218 499.765686
[Rear_Toe3_01]
19 -153.359680 -308.780914 -362.060852 4.015293 20.196030 -108.176468 499.952881
20 -153.359680 -308.780914 -362.060852 4.020525 20.200026 -108.918259 499.952881
[planeLockWeightCenter]
19 -0.000062 0.000238 0.000000 -0.011814 -0.004373 -0.000015 0.000246
20 -0.000062 0.000238 0.000000 -0.011814 -0.004373 -0.000015 0.000246
[Rear_Toe1_02]
19 379.707825 0.194073 0.000477 -0.002640 -33.268677 -0.002640 379.707855
20 379.707825 0.194073 0.000477 -0.002640 -33.268002 -0.002640 379.707855
[Rear_Toe1_03]
19 500.129700 0.165701 0.000119 -0.009058 83.904068 -0.012560 500.129761
20 500.129700 0.165701 0.000119 -0.009082 83.917427 -0.012583 500.129761
[Rear_Toe2_02]
19 340.494507 0.000238 -0.000954 0.001188 -72.050301 0.001188 340.494507
20 340.494507 0.000238 -0.000954 0.001188 -72.039154 0.001188 340.494507
[Rear_Toe2_03]
19 433.103577 0.000000 0.000238 0.008070 73.275810 0.008070 433.103546
20 433.103577 0.000000 0.000238 0.008074 73.283516 0.008074 433.103546
[Rear_Toe3_02]
19 340.494141 -0.000358 -0.000477 0.001195 -68.393417 0.001195 340.494171
20 340.494141 -0.000358 -0.000477 0.001195 -68.463821 0.001195 340.494171
[Rear_Toe3_03]
19 433.103577 0.001431 -0.000238 0.006060 67.664627 0.006060 433.103546
20 433.103577 0.001431 -0.000238 0.006081 67.743774 0.006081 433.103546
[Back_Bone]
19 1312.175781 -701.934692 0.000954 -1.123063 4.986279 -84.324486 1488.125488
20 1312.175781 -701.934692 0.000954 -1.109594 5.112480 -84.120125 1488.125488
[Head]
19 1406.159424 809.709290 0.001431 5.831215 1.433686 9.823024 1622.625488
20 1406.159424 809.709290 0.001431 4.813066 1.176120 11.435734 1622.625488
[Motor_Bone]
19 1158.364380 -417.834747 0.000477 -0.000105 0.000046 -105.985291 1231.419434
20 1158.364380 -417.834747 0.000477 -0.000105 0.000046 -105.985291 1231.419434
[Ping_Mechanism]
19 1214.520264 -429.812866 -34.434418 0.000103 -0.000053 82.120995 1288.791748
20 1215.247925 -429.716370 -35.674385 0.000103 -0.000053 82.120995 1289.479004
[BN_LookIK]
19 193.241119 1380.371704 -0.002861 0.000000 89.965736 -31.038179 1393.832153
20 193.241119 1380.371704 -0.002861 0.000000 89.965736 -31.038179 1393.832153
[bottomMouth]
19 -435.092926 615.759399 -0.000954 -0.000022 0.000016 73.527184 753.966492
20 -435.092926 615.759399 -0.000954 -0.000022 0.000016 73.527184 753.966492
[L_Mouth01]
19 554.440979 7.658243 838.222046 150.204178 23.759130 109.605339 1005.027161
20 554.440979 7.658243 838.222046 150.204178 23.759130 109.605339 1005.027161
[L_mouthFront]
19 551.629089 934.514771 339.150421 0.000081 2.804060 79.119301 1136.941284
20 551.629089 934.514771 339.150421 0.000081 2.804060 79.119301 1136.941284
[mouthGun]
19 55.332661 1627.420898 0.000000 0.000023 0.000009 -11.038128 1628.361328
20 55.332661 1627.420898 0.000000 0.000023 0.000009 -11.038128 1628.361328
[R_Mouth01]
19 554.442383 7.659197 -838.223938 29.795891 -23.759109 109.605331 1005.029541
20 554.442383 7.659197 -838.223938 29.795891 -23.759109 109.605331 1005.029541
[R_mouthFront]
19 551.629089 934.514282 -339.151367 0.000029 -2.803930 79.119133 1136.941162
20 551.629089 934.514282 -339.151367 0.000029 -2.803930 79.119133 1136.941162
[TopMouth]
19 461.269867 -56.106091 -0.008583 -0.000059 -0.000268 92.025169 464.669525
20 461.269867 -56.106091 -0.008583 -0.000059 -0.000268 92.025169 464.669525
[weapon_bone]
19 -987.239868 1448.372803 0.001431 0.000000 89.965736 -31.038221 1752.833740
20 -987.239868 1448.372803 0.001431 0.000000 89.965736 -31.038221 1752.833740
